<?xml version="1.0" encoding="UTF-8"?>
<svg xmlns="http://www.w3.org/2000/svg" viewBox="0 0 1024 1024" data-character="y" data-advance-width="579.920" data-baseline="781.281">
  <path d="M507.954 277.784Q512.450 273.289 516.945 268.344Q521.441 263.399 524.587 259.802Q527.734 256.206 530.432 253.059Q533.129 249.912 534.927 249.013L536.725 247.215Q546.615 249.912 556.505 253.508Q590.671 265.197 590.671 298.464Q590.671 332.629 546.615 388.823Q502.559 445.017 376.685 572.689Q310.152 641.021 256.206 712.050Q218.444 762.400 207.205 774.537Q195.966 786.675 187.874 786.675L184.278 786.675Q175.287 785.776 172.589 787.574Q169.892 789.373 166.296 799.263Q160.901 812.749 158.204 813.648L157.305 813.648Q151.910 813.648 139.772 798.813Q127.634 783.978 120.442 770.492Q113.249 752.509 113.249 736.326Q113.249 722.839 127.185 704.857Q141.121 686.875 222.939 592.470L333.528 466.595L320.941 456.705Q288.573 431.530 252.160 379.832Q215.746 328.134 215.746 309.253Q215.746 302.959 221.141 302.959Q243.618 302.959 300.262 357.804Q339.822 396.466 361.401 402.759L382.979 409.053L399.163 395.566Q413.548 385.676 447.714 346.116Q479.183 310.152 507.954 277.784" fill="#000" fill-rule="nonzero"/>
</svg>
