<?xml version="1.0" encoding="UTF-8"?>
<svg xmlns="http://www.w3.org/2000/svg" viewBox="0 0 1024 1024" data-character="u" data-advance-width="515.185" data-baseline="781.281">
  <path d="M190.571 764.198Q189.672 764.198 174.388 770.042Q159.103 775.886 158.204 775.886Q154.607 775.886 141.121 742.170Q127.634 708.454 121.341 685.077Q112.350 654.507 112.350 596.066Q112.350 539.423 124.038 494.917Q135.726 450.412 177.085 356.006L202.260 298.464L216.645 298.464Q252.609 298.464 267.894 329.033Q275.087 346.116 275.087 367.694Q275.087 400.961 262.500 444.118Q249.912 487.275 199.562 607.754Q184.278 644.617 184.278 652.709L185.177 655.407Q187.874 658.104 203.159 656.306Q244.517 648.214 334.428 493.568Q360.501 447.714 387.475 390.621Q414.448 333.528 418.943 312.849Q428.833 274.188 441.421 269.692Q446.815 267.894 451.311 267.894Q476.486 267.894 500.761 289.473Q526.835 311.950 526.835 353.309Q526.835 366.795 524.138 385.676Q518.743 425.237 516.945 425.237L504.358 416.246L491.770 408.154L500.761 425.237Q507.055 437.824 507.055 444.118Q507.055 447.714 502.559 465.696Q487.275 518.743 431.530 592.470Q415.347 613.149 394.667 644.617Q391.970 650.012 360.501 683.728Q329.033 717.445 294.867 752.509Q260.701 787.574 258.903 789.373Q252.609 797.465 247.215 799.263Q241.820 801.061 227.435 801.061Q204.957 801.061 199.113 797.465Q193.269 793.868 193.269 779.483Q193.269 764.198 190.571 764.198" fill="#000" fill-rule="nonzero"/>
</svg>
