<svg width="525" height="278" viewBox="0 0 525 278" fill="none" xmlns="http://www.w3.org/2000/svg">
<g clip-path="url(#clip0_63_28104)">
<g clip-path="url(#clip1_63_28104)">
<path d="M5.04803 35.6528C5.88937 100.881 6.45027 166.109 7.29162 230.933C8.13296 295.756 12.6201 236.199 12.9006 230.933C15.4246 179.074 17.3878 127.215 18.2291 75.357H12.6201C12.9006 119.923 12.3397 164.894 10.3766 209.46H15.9855C14.8637 142.611 13.181 76.1673 11.2179 9.31838C9.25476 -57.5305 5.60892 4.0515 5.60892 9.31838C7.29162 77.7878 8.41341 146.257 8.69386 214.727C8.97431 283.196 8.69386 253.621 8.69386 273.068C8.69386 292.515 14.3028 278.334 14.3028 273.068C14.3028 204.598 13.4615 136.129 12.3397 67.6592C11.2179 -0.810229 11.4983 28.7653 10.9375 9.31838H5.32848C7.57207 76.1673 9.25476 142.611 10.0961 209.46C10.9374 276.309 15.4246 214.727 15.7051 209.46C17.6682 164.894 18.2291 119.923 17.9487 75.357C17.6682 30.7911 12.6201 70.0901 12.3397 75.357C11.2179 127.215 9.53521 179.074 7.01117 230.933H12.6201C11.7788 165.704 11.2179 100.476 10.3766 35.6528C9.53521 -29.1704 4.76758 30.3859 4.76758 35.6528H5.04803Z" fill="white"/>
<path d="M4.48793 240.25C70.6738 239.034 136.579 237.819 202.765 237.009C271.756 235.793 341.026 234.983 410.017 233.768C446.195 233.362 482.092 232.552 518.27 231.742C554.448 230.932 520.233 230.932 520.794 229.716C523.599 220.803 521.916 204.192 513.783 202.571C505.65 200.951 510.417 209.864 513.783 210.674C517.148 211.485 516.026 215.131 516.307 216.752C516.868 219.588 516.868 222.829 516.307 225.665L518.831 223.639C452.645 224.854 386.74 226.07 320.554 226.88C251.563 228.096 182.292 228.906 113.302 230.121C44.3117 231.337 41.2267 231.337 5.04883 232.147C1.40299 232.147 1.40299 240.25 5.04883 240.25H4.48793Z" fill="white"/>
<path d="M510.137 42.9443C510.137 92.7771 510.978 143.015 511.819 192.848C512.661 242.681 511.259 205.002 512.1 210.674C512.941 216.346 514.063 215.941 516.026 215.941C520.794 215.941 521.635 204.192 522.196 199.33C523.318 188.391 523.318 177.452 523.598 166.513C523.879 155.574 524.44 141.394 524.44 128.835C525.001 100.88 525.001 72.5198 524.44 44.5649C523.879 16.6099 519.111 39.298 518.831 44.5649C516.587 103.311 515.185 162.057 514.904 221.208H520.513C519.952 148.687 519.392 76.5713 518.27 4.05038C517.148 -68.4705 512.661 -1.2165 512.661 4.05038C513.502 76.5713 514.343 148.687 514.904 221.208C515.465 293.729 520.513 226.475 520.513 221.208C520.513 162.462 522.196 103.311 524.44 44.5649H518.831C519.392 88.7256 518.831 132.886 517.428 176.642C516.026 220.398 517.428 196.494 515.185 205.812C512.941 215.131 514.624 207.433 514.624 207.838C514.063 209.459 514.624 209.864 517.148 209.054C517.709 208.243 517.148 203.382 517.148 202.166C517.148 196.494 517.148 190.822 517.148 185.15C516.867 162.867 516.587 140.989 516.307 118.706C516.026 96.4234 515.746 68.4684 515.746 43.3494C515.746 18.2304 510.137 38.0825 510.137 43.3494V42.9443Z" fill="white"/>
<path d="M2.52476 39.7033C32.8132 44.565 63.3821 49.0216 93.951 49.8319C118.911 50.6422 143.871 48.6165 168.831 45.3753C193.791 42.1342 206.691 40.5136 225.481 37.6776L224.64 29.9798C220.994 32.0055 221.555 37.2724 224.64 39.7033C227.725 42.1342 232.493 43.7547 236.139 44.565C245.674 47.401 257.453 50.6422 266.707 45.7805C275.962 40.9187 273.719 38.893 272.877 32.0055L270.073 36.8673C300.361 40.9187 331.211 36.8673 361.499 33.221C391.788 29.5747 430.49 22.6872 464.704 16.61C498.919 10.5329 496.395 10.938 512.1 8.10201C527.805 5.266 515.746 -0.406029 512.1 -0.000884291C481.812 4.86085 451.243 10.938 420.954 16.2049C386.74 21.8769 352.244 27.1438 317.749 29.1695C283.254 31.1953 286.058 30.385 270.353 28.3592C254.648 26.3335 267.268 31.1953 267.549 33.221C267.829 35.2467 267.549 35.2467 266.707 36.4621C265.305 37.6776 263.623 38.4879 261.94 38.4879C257.172 39.7033 252.124 38.893 247.637 38.4879C243.15 38.0827 237.821 36.4621 233.054 34.8416C228.286 33.221 229.688 33.6261 228.006 32.4107C226.323 31.1953 227.164 31.6004 226.603 31.6004C226.884 31.6004 227.164 36.057 225.762 36.8673C228.566 35.2467 228.286 28.3592 224.921 29.1695C194.632 33.221 164.063 38.0827 133.775 40.1084C103.486 42.1342 83.8549 40.9187 58.895 38.4879C39.8244 36.4621 21.0344 33.6261 1.96386 30.7901C-17.1067 27.9541 -1.40152 38.0827 1.96386 38.893L2.52476 39.7033Z" fill="white"/>
</g>
<path d="M122.387 117.899C121.139 116.748 120.42 116.172 120.228 116.172C120.036 116.172 119.7 116.46 119.22 117.036C118.789 117.563 118.573 117.947 118.573 118.187C118.573 118.619 117.853 121.425 116.414 126.607C115.07 131.644 114.399 134.523 114.399 135.243C114.399 135.866 115.55 136.37 117.853 136.754C118.765 136.898 119.22 136.874 119.22 136.682C119.22 136.49 119.532 135.986 120.156 135.171L121.163 134.091H127.137L128.72 132.58C129.439 131.908 130.039 131.453 130.519 131.213C130.999 130.973 131.862 130.733 133.11 130.493C134.933 130.061 135.844 129.749 135.844 129.557C135.844 128.982 135.604 127.662 135.125 125.599C134.645 123.536 134.309 122.337 134.117 122.001C133.445 121.042 131.886 120.562 129.439 120.562C126.657 120.562 124.306 119.674 122.387 117.899ZM112.744 107.968C113.559 107.344 114.519 107.033 115.622 107.033C117.685 107.033 119.292 107.968 120.444 109.839C120.54 109.983 120.66 110.175 120.804 110.415C120.948 110.607 121.044 110.751 121.092 110.847C121.187 110.943 121.283 111.063 121.379 111.206C121.523 111.302 121.619 111.374 121.667 111.422C121.763 111.47 121.859 111.518 121.955 111.566C122.099 111.614 122.243 111.638 122.387 111.638C122.771 111.638 123.418 111.494 124.33 111.206C125.673 110.871 127.256 110.703 129.08 110.703C130.807 110.703 132.198 110.943 133.254 111.422C134.309 111.902 135.436 112.766 136.636 114.013C137.643 115.117 138.651 116.076 139.658 116.892C140.522 117.611 141.314 118.619 142.033 119.914C142.753 121.21 143.113 122.289 143.113 123.153C143.113 124.016 142.945 125.168 142.609 126.607C142.273 128.046 141.817 128.91 141.242 129.198C140.282 129.725 139.802 130.109 139.802 130.349C139.802 130.589 139.898 130.901 140.09 131.285C140.282 131.668 140.378 132.052 140.378 132.436C140.378 133.06 139.874 134.283 138.867 136.106C137.475 138.601 136.06 140.232 134.621 141C133.373 141.576 131.718 141.863 129.655 141.863C129.128 141.863 128.576 141.815 128 141.719C127.424 141.576 126.681 141.504 125.769 141.504H125.05L123.394 141.719L124.762 143.159C128.6 147.045 131.215 151.507 132.606 156.544C132.75 156.976 133.014 157.288 133.397 157.48C133.781 157.672 134.813 157.984 136.492 158.415C140.138 159.375 142.729 160.718 144.264 162.445C145.224 163.549 146.495 164.796 148.078 166.187C149.518 167.483 150.501 168.514 151.029 169.282C151.557 170.098 151.82 170.961 151.82 171.873C151.82 172.257 151.796 172.544 151.748 172.736C151.653 173.936 151.341 175.111 150.813 176.263C150.045 177.894 148.99 178.709 147.646 178.709C146.975 178.709 146.063 178.517 144.912 178.134C143.425 177.606 142.153 176.982 141.098 176.263C140.09 175.543 138.891 174.343 137.499 172.664C137.164 172.28 136.636 171.681 135.916 170.865C135.245 170.098 134.669 169.426 134.189 168.85C133.709 168.274 133.326 167.843 133.038 167.555C131.838 166.211 130.999 165.012 130.519 163.957C130.039 162.901 129.751 161.654 129.655 160.214L129.583 157.84L127.928 156.976C127.113 156.496 125.913 155.657 124.33 154.457C122.795 153.258 122.027 152.562 122.027 152.37C122.027 152.082 120.876 150.907 118.573 148.844C116.318 146.733 115.022 145.678 114.687 145.678C114.639 145.678 114.471 146.013 114.183 146.685C113.991 147.261 113.895 148.076 113.895 149.132C113.895 150.571 114.039 151.723 114.327 152.586C114.663 153.498 114.831 155.105 114.831 157.408V159.279C114.783 160.334 114.711 161.03 114.615 161.366C114.519 161.654 114.183 162.062 113.607 162.589C112.84 163.405 111.16 164.292 108.57 165.252C106.123 166.211 104.444 166.691 103.532 166.691C102.956 166.691 102.405 166.547 101.877 166.259C101.253 165.924 100.845 165.516 100.654 165.036C100.462 164.604 100.366 163.741 100.366 162.445C100.366 162.253 100.366 161.87 100.366 161.294C100.414 160.718 100.438 160.238 100.438 159.855C100.534 156.736 100.845 154.649 101.373 153.594C101.997 152.346 102.669 149.564 103.388 145.246C103.484 144.478 103.988 143.111 104.899 141.144C105.907 138.985 106.555 137.21 106.843 135.818C107.13 134.379 107.298 131.836 107.346 128.19V124.664C107.346 122.601 107.106 121.09 106.627 120.13C106.099 119.123 105.451 118.307 104.684 117.683C103.916 117.108 103.412 116.388 103.172 115.524C103.076 115.045 103.028 114.709 103.028 114.517C103.028 113.269 104.084 112.406 106.195 111.926C108.354 111.35 109.913 110.559 110.873 109.551C111.064 109.311 111.688 108.784 112.744 107.968ZM201.559 112.214C202.182 112.022 202.95 111.926 203.862 111.926C205.397 111.926 206.596 112.214 207.46 112.79C208.227 113.317 208.875 114.061 209.403 115.021C209.931 115.98 210.195 116.916 210.195 117.827C210.195 118.643 209.955 119.602 209.475 120.706C208.995 121.761 208.443 122.601 207.82 123.225C206.476 124.424 204.821 125.024 202.854 125.024C202.47 125.024 201.799 124.976 200.839 124.88H200.407C199.4 124.88 197.793 125.096 195.586 125.527C193.379 125.959 191.58 126.439 190.188 126.967C188.893 127.351 187.861 127.542 187.094 127.542C186.182 127.542 185.439 127.327 184.863 126.895C184.287 126.463 183.999 125.959 183.999 125.384C183.999 124.76 184.383 124.064 185.151 123.297C185.87 122.577 186.23 122.025 186.23 121.641C186.23 120.874 186.902 120.394 188.245 120.202C189.061 120.058 190.932 118.931 193.859 116.82C197.409 114.277 199.976 112.742 201.559 112.214ZM173.636 124.16C174.548 123.728 175.555 123.512 176.659 123.512C177.666 123.512 178.434 123.68 178.962 124.016C179.538 124.352 180.041 125.024 180.473 126.031C180.953 127.039 181.193 128.022 181.193 128.982C181.193 131.141 180.281 132.82 178.458 134.019C177.451 134.643 176.947 135.123 176.947 135.459C176.947 135.507 176.995 135.674 177.091 135.962C177.714 137.594 178.242 138.505 178.674 138.697C178.722 138.697 178.794 138.721 178.89 138.769C178.986 138.769 179.082 138.769 179.178 138.769C179.945 138.769 181.744 138.481 184.575 137.905C187.454 137.282 189.253 136.946 189.972 136.898C190.212 136.85 190.596 136.826 191.124 136.826C193.715 136.826 195.538 137.186 196.593 137.905C197.889 138.769 198.536 140.016 198.536 141.648C198.536 142.799 197.961 143.998 196.809 145.246C195.85 146.349 195.034 147.117 194.362 147.549C193.739 147.98 192.875 148.388 191.772 148.772C190.476 149.252 189.205 149.492 187.957 149.492C187.526 149.492 186.59 149.396 185.151 149.204C184.671 149.108 184.335 149.06 184.143 149.06C183.616 149.06 182.464 149.564 180.689 150.571C177.666 152.298 175.46 153.882 174.068 155.321C173.205 156.184 172.773 156.856 172.773 157.336C172.773 157.72 173.061 157.912 173.636 157.912C174.068 157.912 174.692 158.175 175.508 158.703C176.371 159.279 177.499 159.735 178.89 160.07C180.329 160.454 181.361 160.766 181.984 161.006C182.272 161.15 182.536 161.222 182.776 161.222C183.304 161.222 184.743 160.478 187.094 158.991C189.205 157.648 191.82 156.976 194.938 156.976C195.082 156.976 195.322 157 195.658 157.048C195.993 157.048 196.257 157.048 196.449 157.048C198.848 157.192 200.359 157.384 200.983 157.624C201.607 157.816 202.278 158.367 202.998 159.279C203.958 160.574 204.629 161.438 205.013 161.87C205.685 162.685 206.021 163.645 206.021 164.748C206.021 166.475 205.301 167.867 203.862 168.922C203.334 169.306 202.662 169.546 201.847 169.642C201.031 169.738 198.92 169.834 195.514 169.93C190.62 170.074 187.598 170.313 186.446 170.649C185.247 170.985 184.095 171.153 182.992 171.153C181.649 171.153 179.825 171.273 177.523 171.513C176.083 171.657 175.004 171.729 174.284 171.729C173.612 171.729 172.629 171.609 171.334 171.369C168.167 170.745 165.36 169.258 162.914 166.907C161.858 165.9 161.091 164.964 160.611 164.101C160.179 163.237 159.963 162.205 159.963 161.006C159.963 159.519 160.323 157.264 161.043 154.241C161.858 150.787 162.338 146.853 162.482 142.439C162.626 138.601 162.89 136.154 163.274 135.099C163.657 133.995 164.857 132.292 166.872 129.989C169.51 126.919 171.765 124.976 173.636 124.16ZM236.857 164.316H223.644V156.27H236.365C240.089 156.27 243.182 155.579 245.641 154.196C248.124 152.814 249.975 150.764 251.193 148.047C252.411 145.33 253.021 142.003 253.021 138.068C253.021 134.155 252.411 130.864 251.193 128.194C249.975 125.5 248.148 123.461 245.712 122.079C243.299 120.697 240.277 120.006 236.646 120.006H223.363V111.959H237.243C242.444 111.959 246.918 113.013 250.666 115.122C254.414 117.207 257.296 120.205 259.31 124.117C261.348 128.03 262.368 132.68 262.368 138.068C262.368 143.502 261.348 148.188 259.31 152.123C257.272 156.035 254.356 159.046 250.561 161.154C246.766 163.262 242.198 164.316 236.857 164.316ZM228.493 111.959V164.316H219.147V111.959H228.493ZM270.098 164.316V111.959H290.162C294.075 111.959 297.413 112.65 300.177 114.032C302.965 115.415 305.085 117.359 306.537 119.866C308.013 122.372 308.751 125.324 308.751 128.721C308.751 132.071 307.99 134.987 306.467 137.47C304.944 139.93 302.766 141.839 299.931 143.198C297.12 144.533 293.735 145.201 289.776 145.201H275.58V137.47H289.284C291.486 137.47 293.337 137.119 294.836 136.416C296.335 135.713 297.471 134.706 298.244 133.394C299.017 132.082 299.404 130.524 299.404 128.721C299.404 126.87 299.017 125.289 298.244 123.977C297.471 122.642 296.335 121.623 294.836 120.92C293.337 120.194 291.474 119.83 289.249 119.83H279.445V164.316H270.098ZM299.826 164.316L287.386 140.633H297.507L310.157 164.316H299.826ZM313.038 164.316L331.556 111.959H343.328L361.987 164.316H351.726L342.52 136.943C341.606 134.085 340.646 130.958 339.638 127.561C338.631 124.164 337.506 120.217 336.265 115.719H338.584C337.342 120.24 336.218 124.199 335.211 127.596C334.227 130.993 333.29 134.109 332.4 136.943L323.158 164.316H313.038ZM323.931 151.596V144.006H351.094V151.596H323.931ZM372.915 164.316L358.789 111.959H368.733L375.621 140.035C376.089 142.027 376.522 144.076 376.921 146.185C377.342 148.293 377.752 150.401 378.151 152.51C378.549 154.618 378.935 156.703 379.31 158.764H377.694C378.092 156.703 378.49 154.618 378.888 152.51C379.31 150.401 379.744 148.293 380.189 146.185C380.634 144.076 381.102 142.027 381.594 140.035L388.763 111.959H398.637L405.735 140.035C406.227 142.027 406.695 144.076 407.14 146.185C407.609 148.293 408.054 150.401 408.476 152.51C408.897 154.618 409.307 156.703 409.705 158.764H407.984C408.382 156.703 408.768 154.618 409.143 152.51C409.541 150.401 409.963 148.293 410.408 146.185C410.853 144.076 411.298 142.027 411.743 140.035L418.596 111.959H428.575L414.414 164.316H403.802L395.966 134.624C395.334 132.234 394.748 129.646 394.209 126.858C393.694 124.071 393.131 121.084 392.522 117.898H394.842C394.186 121.037 393.612 123.989 393.12 126.753C392.628 129.494 392.054 132.117 391.398 134.624L383.562 164.316H372.915Z" fill="white"/>
</g>
<defs>
<clipPath id="clip0_63_28104">
<rect width="525" height="277.524" fill="white"/>
</clipPath>
<clipPath id="clip1_63_28104">
<rect width="525" height="277.524" fill="white"/>
</clipPath>
</defs>
</svg>
